<?xml version="1.0" encoding="utf-8"?>
<!-- Generator: Adobe Illustrator 19.0.0, SVG Export Plug-In . SVG Version: 6.00 Build 0)  -->
<svg version="1.1" id="Layer_1" xmlns="http://www.w3.org/2000/svg" xmlns:xlink="http://www.w3.org/1999/xlink" x="0px" y="0px"
	 viewBox="0 0 452 276" style="enable-background:new 0 0 452 276;" xml:space="preserve">
<style type="text/css">
	.st0{fill:#383838;}
	.st1{fill:#FFFFFF;}
	.st2{fill:#DB7A27;}
	.st3{fill:#6E6F71;}
</style>
<g>
	<rect id="XMLID_30_" x="143.5" y="142.4" class="st0" width="295.8" height="120.6"/>
	<g>
		<path class="st1" d="M239.8,234.9h-19.3l-17.6-23.1h-5.7v23.1h-15.8v-63.2h25.4c3.5,0,6.6,0.2,9.2,0.7c2.6,0.4,5,1.4,7.2,2.7
			c2.3,1.4,4.1,3.3,5.4,5.5c1.3,2.2,2,5,2,8.5c0,4.8-1.1,8.8-3.3,11.8c-2.2,3-5.1,5.4-8.7,7.2L239.8,234.9z M214.2,191.1
			c0-1.6-0.3-2.9-0.9-4.1c-0.6-1.1-1.6-2-3-2.6c-1-0.4-2.1-0.7-3.3-0.8c-1.2-0.1-2.7-0.2-4.5-0.2h-5.3v17h4.5c2.2,0,4.1-0.1,5.6-0.4
			c1.5-0.3,2.8-0.8,3.9-1.7c1-0.8,1.8-1.7,2.3-2.8C214,194.3,214.2,192.8,214.2,191.1z"/>
		<path class="st1" d="M227.2,234.9l21.3-63.2h17.3l21.3,63.2h-16.3l-3.9-12.9h-19.8l-3.9,12.9H227.2z M263.4,210.5l-6.4-20.8
			l-6.4,20.8H263.4z"/>
		<path class="st1" d="M347.6,234.9h-15.8V193l-11.5,27h-10.8L298,193v41.9H283v-63.2h18.3l14,31.2l14-31.2h18.3V234.9z"/>
		<path class="st1" d="M343.4,234.9l21.3-63.2H382l21.3,63.2H387l-3.9-12.9h-19.8l-4,12.9H343.4z M379.6,210.5l-6.4-20.8l-6.4,20.8
			H379.6z"/>
	</g>
	<g>
		<path class="st1" d="M399.5,175.9c0,1.3-0.5,2.5-1.4,3.4c-0.9,0.9-2.1,1.4-3.4,1.4c-1.3,0-2.5-0.5-3.4-1.4
			c-0.9-0.9-1.4-2.1-1.4-3.4c0-1.3,0.5-2.5,1.4-3.4c0.9-0.9,2.1-1.4,3.4-1.4c1.3,0,2.5,0.5,3.4,1.4
			C399.1,173.5,399.5,174.6,399.5,175.9z M398.9,175.9c0-1.2-0.4-2.1-1.2-3c-0.8-0.8-1.8-1.2-3-1.2c-1.2,0-2.1,0.4-3,1.2
			c-0.8,0.8-1.2,1.8-1.2,3c0,1.2,0.4,2.2,1.2,3c0.8,0.8,1.8,1.2,3,1.2c1.1,0,2.1-0.4,3-1.2C398.5,178.1,398.9,177.1,398.9,175.9z
			 M397.5,178.4h-1.3l-1.6-2H394v2H393v-5.1h1.6c0.3,0,0.6,0,0.8,0c0.2,0,0.4,0.1,0.6,0.2c0.2,0.1,0.4,0.3,0.5,0.5
			c0.1,0.2,0.1,0.4,0.1,0.7c0,0.4-0.1,0.7-0.3,0.9c-0.2,0.2-0.5,0.4-0.8,0.6L397.5,178.4z M395.6,174.7c0-0.1,0-0.3-0.1-0.4
			c-0.1-0.1-0.1-0.2-0.2-0.3c-0.1-0.1-0.2-0.1-0.3-0.1c-0.1,0-0.3,0-0.4,0H394v1.7h0.5c0.2,0,0.3,0,0.5-0.1c0.1,0,0.3-0.1,0.4-0.2
			c0.1-0.1,0.2-0.2,0.2-0.3C395.6,175.1,395.6,174.9,395.6,174.7z"/>
	</g>
	<rect id="XMLID_18_" x="143.5" y="11.7" class="st2" width="295.8" height="120.6"/>
	<rect id="XMLID_17_" x="11.9" y="11.7" class="st0" width="120.6" height="120.6"/>
	<g>
		<path class="st1" d="M184,93.1c-2,0-3.9-0.3-5.6-0.9c-1.7-0.6-3.1-1.6-4.3-2.8c-1.2-1.3-2.2-2.9-2.8-4.8c-0.7-1.9-1-4.2-1-6.8
			c0-2.6,0.3-4.8,1-6.7c0.7-1.9,1.6-3.5,2.8-4.7c1.2-1.3,2.6-2.3,4.3-3c1.7-0.7,3.6-1,5.6-1c1.6,0,3.2,0.2,4.7,0.7
			c1.5,0.5,2.8,1,4,1.6v5.5h-0.3c-0.4-0.3-0.8-0.6-1.3-1c-0.6-0.4-1.2-0.8-2-1.2c-0.7-0.4-1.5-0.7-2.4-0.9c-0.9-0.3-1.8-0.4-2.7-0.4
			c-2.6,0-4.6,1-6.2,2.9c-1.5,1.9-2.3,4.7-2.3,8.2c0,3.5,0.7,6.2,2.2,8.1c1.5,1.9,3.6,2.9,6.3,2.9c1.6,0,3.1-0.3,4.6-1
			c1.5-0.7,2.7-1.5,3.9-2.6h0.3v5.5c-0.5,0.2-1.1,0.5-1.8,0.8c-0.7,0.3-1.4,0.6-2,0.7c-0.8,0.2-1.6,0.4-2.3,0.6
			C185.9,93,185.1,93.1,184,93.1z"/>
		<path class="st1" d="M212.2,68.4H212c-0.4-0.1-0.8-0.2-1.2-0.2c-0.4,0-0.9,0-1.5,0c-1.3,0-2.7,0.3-4,0.9c-1.3,0.6-2.6,1.4-3.7,2.6
			v20.9h-4.9V63.1h4.9v4.4c1.8-1.6,3.4-2.7,4.7-3.4c1.3-0.7,2.6-1,3.9-1c0.5,0,0.9,0,1.1,0c0.3,0,0.5,0.1,0.9,0.1V68.4z"/>
		<path class="st1" d="M228,93.1c-4.7,0-8.3-1.3-10.9-4c-2.6-2.6-3.9-6.4-3.9-11.2c0-4.8,1.3-8.6,3.8-11.4c2.5-2.8,5.8-4.2,9.8-4.2
			c1.8,0,3.4,0.3,4.8,0.8c1.4,0.5,2.6,1.3,3.7,2.5c1.1,1.1,1.9,2.5,2.4,4.1c0.6,1.6,0.8,3.6,0.8,6v2.7h-20.4c0,3.4,0.9,6,2.6,7.8
			c1.7,1.8,4.1,2.7,7.1,2.7c1.1,0,2.2-0.1,3.2-0.4c1-0.3,2-0.6,2.8-0.9c0.9-0.4,1.7-0.8,2.3-1.2c0.6-0.4,1.1-0.7,1.5-1.1h0.3v5.4
			c-0.6,0.2-1.3,0.5-2.2,0.9c-0.9,0.3-1.6,0.6-2.3,0.8c-1,0.3-1.8,0.5-2.6,0.6C230.2,93.1,229.2,93.1,228,93.1z M233.8,74.5
			c0-1.3-0.2-2.5-0.5-3.5c-0.3-1-0.7-1.8-1.2-2.5c-0.6-0.7-1.3-1.3-2.2-1.7c-0.9-0.4-2-0.6-3.4-0.6c-1.3,0-2.4,0.2-3.4,0.6
			c-0.9,0.4-1.8,1-2.5,1.7c-0.7,0.8-1.3,1.6-1.7,2.6c-0.4,0.9-0.6,2-0.7,3.3H233.8z"/>
		<path class="st1" d="M259.5,89.3c-0.4,0.3-0.9,0.7-1.6,1.3c-0.7,0.5-1.3,1-2,1.3c-0.9,0.5-1.7,0.8-2.5,1.1c-0.8,0.2-2,0.4-3.4,0.4
			c-1.2,0-2.4-0.2-3.5-0.7c-1.1-0.5-2-1.1-2.9-1.9c-0.8-0.8-1.4-1.8-1.9-3c-0.5-1.2-0.7-2.4-0.7-3.7c0-2,0.4-3.8,1.3-5.2
			c0.9-1.4,2.2-2.6,4.1-3.4c1.7-0.8,3.6-1.3,5.8-1.6c2.2-0.3,4.7-0.5,7.3-0.6v-0.9c0-1.2-0.2-2.1-0.5-2.8c-0.4-0.7-0.8-1.3-1.5-1.6
			c-0.6-0.4-1.4-0.7-2.3-0.8c-0.9-0.1-1.9-0.2-2.8-0.2c-1.1,0-2.5,0.2-4,0.5c-1.5,0.3-3.1,0.8-4.6,1.5h-0.3v-5
			c0.9-0.3,2.2-0.6,3.9-0.9c1.7-0.3,3.4-0.5,5-0.5c2,0,3.7,0.2,5.1,0.5c1.4,0.3,2.6,0.9,3.7,1.7c1.1,0.8,1.9,1.8,2.4,3.1
			c0.5,1.3,0.8,2.8,0.8,4.7v20.1h-4.9V89.3z M259.5,85.2v-8.2c-1.2,0.1-2.7,0.3-4.5,0.4c-1.8,0.2-3.3,0.4-4.4,0.8
			c-1.3,0.4-2.4,1-3.3,1.9c-0.9,0.8-1.3,2-1.3,3.5c0,1.7,0.5,3,1.4,3.8c0.9,0.9,2.3,1.3,4.2,1.3c1.6,0,3-0.3,4.2-1
			C257.2,87,258.4,86.2,259.5,85.2z"/>
		<path class="st1" d="M282.5,93.1c-2,0-3.9-0.3-5.5-0.9c-1.7-0.6-3.1-1.6-4.3-2.8c-1.2-1.3-2.2-2.9-2.8-4.8c-0.7-1.9-1-4.2-1-6.8
			c0-2.6,0.3-4.8,1-6.7c0.7-1.9,1.6-3.5,2.8-4.7c1.1-1.3,2.6-2.3,4.3-3c1.7-0.7,3.6-1,5.6-1c1.6,0,3.2,0.2,4.7,0.7
			c1.5,0.5,2.8,1,4,1.6v5.5h-0.3c-0.3-0.3-0.8-0.6-1.4-1c-0.5-0.4-1.2-0.8-2-1.2c-0.7-0.4-1.5-0.7-2.4-0.9c-0.9-0.3-1.8-0.4-2.7-0.4
			c-2.6,0-4.6,1-6.2,2.9c-1.6,1.9-2.3,4.7-2.3,8.2c0,3.5,0.8,6.2,2.3,8.1c1.5,1.9,3.6,2.9,6.3,2.9c1.6,0,3.1-0.3,4.6-1
			c1.4-0.7,2.7-1.5,3.9-2.6h0.3v5.5c-0.5,0.2-1.1,0.5-1.8,0.8c-0.7,0.3-1.4,0.6-2,0.7c-0.8,0.2-1.6,0.4-2.3,0.6
			C284.4,93,283.6,93.1,282.5,93.1z"/>
		<path class="st1" d="M300.5,58.1h-5.6V53h5.6V58.1z M300.2,92.4h-4.9V63.1h4.9V92.4z"/>
		<path class="st1" d="M331.1,77.8c0,4.9-1.2,8.8-3.6,11.5c-2.4,2.7-5.6,4-9.5,4c-4.1,0-7.3-1.4-9.7-4.2c-2.3-2.8-3.5-6.6-3.5-11.3
			c0-4.9,1.2-8.7,3.6-11.5c2.4-2.7,5.6-4.1,9.6-4.1c4,0,7.1,1.3,9.5,4.1C329.9,69,331.1,72.8,331.1,77.8z M326,77.8
			c0-3.8-0.7-6.6-2.1-8.5c-1.4-1.9-3.4-2.8-5.9-2.8c-2.6,0-4.6,0.9-6,2.8c-1.4,1.8-2.1,4.7-2.1,8.5c0,3.7,0.7,6.5,2.1,8.4
			c1.4,1.9,3.4,2.9,6,2.9c2.5,0,4.5-0.9,5.9-2.8C325.3,84.3,326,81.5,326,77.8z"/>
		<path class="st1" d="M358.7,92.4h-4.9V75.7c0-1.3-0.1-2.6-0.2-3.8c-0.1-1.2-0.4-2.1-0.8-2.8c-0.4-0.7-1-1.3-1.7-1.7
			c-0.7-0.4-1.7-0.5-3-0.5c-1.2,0-2.5,0.3-3.8,1c-1.3,0.7-2.6,1.5-3.8,2.6v21.9h-4.9V63.1h4.9v3.3c1.5-1.3,2.9-2.3,4.4-3
			c1.4-0.7,3-1,4.6-1c2.9,0,5.2,0.9,6.8,2.8c1.6,1.9,2.4,4.7,2.4,8.3V92.4z"/>
		<path class="st1" d="M377.9,93.1c-4.7,0-8.3-1.3-10.9-4c-2.6-2.6-3.9-6.4-3.9-11.2c0-4.8,1.3-8.6,3.8-11.4
			c2.5-2.8,5.8-4.2,9.8-4.2c1.8,0,3.4,0.3,4.8,0.8c1.4,0.5,2.6,1.3,3.7,2.5c1.1,1.1,1.9,2.5,2.4,4.1c0.6,1.6,0.8,3.6,0.8,6v2.7
			h-20.4c0,3.4,0.9,6,2.6,7.8c1.7,1.8,4.1,2.7,7.1,2.7c1.1,0,2.2-0.1,3.2-0.4c1-0.3,2-0.6,2.8-0.9c0.9-0.4,1.6-0.8,2.3-1.2
			c0.6-0.4,1.1-0.7,1.5-1.1h0.3v5.4c-0.6,0.2-1.3,0.5-2.2,0.9c-0.9,0.3-1.6,0.6-2.3,0.8c-1,0.3-1.9,0.5-2.6,0.6
			C380.1,93.1,379.1,93.1,377.9,93.1z M383.7,74.5c0-1.3-0.2-2.5-0.5-3.5c-0.3-1-0.7-1.8-1.2-2.5c-0.6-0.7-1.3-1.3-2.2-1.7
			c-0.9-0.4-2-0.6-3.4-0.6c-1.3,0-2.4,0.2-3.4,0.6c-0.9,0.4-1.8,1-2.5,1.7c-0.7,0.8-1.3,1.6-1.7,2.6c-0.4,0.9-0.6,2-0.7,3.3H383.7z"
			/>
		<path class="st1" d="M400.9,93.2c-2,0-3.8-0.3-5.5-0.8c-1.7-0.5-3.1-1.1-4.3-1.7v-5.6h0.3c0.4,0.3,0.9,0.7,1.5,1.1
			c0.6,0.4,1.3,0.8,2.3,1.3c0.8,0.4,1.8,0.7,2.8,1c1,0.3,2.1,0.4,3.1,0.4c0.8,0,1.6-0.1,2.5-0.3c0.9-0.2,1.6-0.4,2-0.7
			c0.6-0.4,1.1-0.8,1.3-1.3c0.3-0.5,0.4-1.1,0.4-2.1c0-1.2-0.3-2.1-1-2.6c-0.6-0.6-1.8-1.1-3.4-1.5c-0.6-0.2-1.4-0.3-2.5-0.6
			c-1-0.2-2-0.4-2.8-0.7c-2.2-0.6-3.9-1.6-4.9-3c-1-1.4-1.5-3-1.5-4.9c0-2.6,1-4.8,3-6.5c2-1.7,4.7-2.5,8-2.5c1.6,0,3.3,0.2,4.9,0.6
			c1.7,0.4,3,0.9,4.2,1.5v5.3h-0.3c-1.3-1-2.7-1.8-4.2-2.4c-1.5-0.6-3.1-0.9-4.7-0.9c-1.6,0-3,0.3-4.1,1c-1.1,0.7-1.7,1.7-1.7,3.1
			c0,1.2,0.3,2.1,1,2.7c0.7,0.6,1.7,1.1,3.2,1.5c0.7,0.2,1.6,0.4,2.5,0.6c0.9,0.2,1.9,0.4,2.9,0.6c2.2,0.5,3.8,1.5,4.9,2.7
			c1.1,1.3,1.7,3,1.7,5.2c0,1.3-0.3,2.5-0.8,3.6c-0.5,1.1-1.2,2.1-2.2,2.9c-1.1,0.9-2.2,1.5-3.6,2C404.6,92.9,402.9,93.2,400.9,93.2
			z"/>
	</g>
	<rect id="XMLID_1_" x="11.9" y="142.4" class="st3" width="120.6" height="120.6"/>
</g>
</svg>
